<?xml version="1.0" encoding="iso-8859-1"?>
<!-- Generator: Adobe Illustrator 19.0.0, SVG Export Plug-In . SVG Version: 6.00 Build 0)  -->
<svg version="1.1" id="Capa_1" xmlns="http://www.w3.org/2000/svg" xmlns:xlink="http://www.w3.org/1999/xlink" x="0px" y="0px"
	 viewBox="0 0 512 512" style="enable-background:new 0 0 512 512;" xml:space="preserve">
<g>
	<g>
		<path d="M256,126c-63.411,0-115,51.589-115,115c0,30.388,11.852,58.055,31.17,78.636c2.943-10.543,7.873-20.523,14.626-29.375
			C176.867,276.353,171,259.354,171,241c0-46.869,38.131-85,85-85s85,38.131,85,85c0,18.354-5.867,35.353-15.796,49.262
			c6.753,8.852,11.683,18.831,14.626,29.375C359.148,299.055,371,271.388,371,241C371,177.589,319.411,126,256,126z"/>
	</g>
</g>
<g>
	<g>
		<path d="M256,66c-96.495,0-175,78.505-175,175c0,67.571,38.499,126.314,94.711,155.463l-5.522-38.658
			C134.32,331.383,111,288.866,111,241c0-79.953,65.047-145,145-145s145,65.047,145,145c0,47.866-23.32,90.383-59.189,116.805
			l-5.522,38.658C392.501,367.314,431,308.571,431,241C431,144.505,352.495,66,256,66z"/>
	</g>
</g>
<g>
	<g>
		<path d="M407,0H105C47.103,0,0,47.103,0,105v302c0,57.897,47.103,105,105,105h302c57.897,0,105-47.103,105-105V105
			C512,47.103,464.897,0,407,0z M482,407c0,41.355-33.645,75-75,75H105c-41.355,0-75-33.645-75-75V105c0-41.355,33.645-75,75-75h302
			c41.355,0,75,33.645,75,75V407z"/>
	</g>
</g>
<g>
	<g>
		<path d="M256,186c-24.813,0-45,20.187-45,45s20.187,45,45,45s45-20.187,45-45S280.813,186,256,186z M256,246
			c-8.271,0-15-6.729-15-15s6.729-15,15-15s15,6.729,15,15S264.271,246,256,246z"/>
	</g>
</g>
<g>
	<g>
		<path d="M306.644,299.115C293.904,284.425,275.445,276,256,276s-37.904,8.425-50.644,23.115
			c-12.741,14.689-18.47,34.154-15.72,53.403l7.835,54.846C200.618,429.39,219.769,446,242.019,446h27.962
			c22.25,0,41.401-16.61,44.548-38.636l7.835-54.845C325.114,333.269,319.384,313.804,306.644,299.115z M292.667,348.276
			l-7.835,54.845c-1.049,7.342-7.433,12.879-14.85,12.879H242.02c-7.417,0-13.801-5.536-14.85-12.878l-7.835-54.846
			c-1.519-10.635,1.646-21.389,8.685-29.505C235.059,310.655,245.257,306,256,306c10.743,0,20.941,4.655,27.982,12.771
			C291.021,326.886,294.186,337.641,292.667,348.276z"/>
	</g>
</g>
<g>
</g>
<g>
</g>
<g>
</g>
<g>
</g>
<g>
</g>
<g>
</g>
<g>
</g>
<g>
</g>
<g>
</g>
<g>
</g>
<g>
</g>
<g>
</g>
<g>
</g>
<g>
</g>
<g>
</g>
</svg>
